<svg id="Bembos" xmlns="http://www.w3.org/2000/svg" width="160" height="84.528" viewBox="0 0 160 84.528">
  <path id="Path_1996" data-name="Path 1996" d="M0,0H160V84.528H0Z" fill="none"/>
  <g id="Group_7645" data-name="Group 7645" transform="translate(44 29.226)">
    <g id="Group_7641" data-name="Group 7641" transform="translate(31.439)">
      <path id="Path_1993" data-name="Path 1993" d="M831.792,3570.574q-.235,1.264-.524,2.518c-.786.008-13.83,1.207-15.776,1.341.112-.834.345-1.647.5-2.474C817.569,3571.791,828.1,3570.873,831.792,3570.574Z" transform="translate(-815.492 -3570.574)" fill="#242e3d"/>
    </g>
    <g id="Group_7643" data-name="Group 7643" transform="translate(0 2.52)">
      <g id="Group_7642" data-name="Group 7642" transform="translate(0 0)">
        <path id="Path_1994" data-name="Path 1994" d="M554.35,3598.151a6.559,6.559,0,0,1,4.2-1.378,14.925,14.925,0,0,1,2.157.071c-.165,1.023-.413,2.032-.619,3.048-.068.308-.127.62-.219.923a2.9,2.9,0,0,0-2.28-.253,1.59,1.59,0,0,0-1.091,1.146.974.974,0,0,0,.165.916c.493.6,1.245.893,1.779,1.448a3.316,3.316,0,0,1,1.085,2.5,6.123,6.123,0,0,1-.936,3.576,5.867,5.867,0,0,1-3.616,2.322,9.49,9.49,0,0,1-4.315.044c.283-1.275.536-2.556.817-3.831a4.79,4.79,0,0,0,2.257.057,1.458,1.458,0,0,0,1-1.674c-.237-.589-.816-.923-1.281-1.313a7.74,7.74,0,0,1-1.11-1.1,11.381,11.381,0,0,1-4.763,7.086,10.535,10.535,0,0,1-4.372,1.858,6.509,6.509,0,0,1-4.5-.777,5.184,5.184,0,0,1-2.18-2.854,6.989,6.989,0,0,1-5.194,4.2c-1.032.194-2.086.215-3.127.331-2.024.16-4.046.352-6.07.516-.24-1.942-.5-3.881-.731-5.825-.929,1.033-3.294,3.928-3.59,4.306-.241-.333-1.719-3.074-2.3-4.063-.026,0-2,4.28-2.926,6.422-2.09.207-10.88.986-13.185,1.144.187-1.02.459-2.025.6-3.052a7.058,7.058,0,0,1-3.936,3.145,8.793,8.793,0,0,1-2.256.413c-1.7.135-3.4.32-5.1.423.3-1.712,3.035-14.43,3.168-14.922.817-.084,1.636-.132,2.453-.216a12.419,12.419,0,0,1,4.079,0,2.671,2.671,0,0,1,1.886,1.428,3.807,3.807,0,0,1,.211,1.884,3.532,3.532,0,0,1-2.115,2.8,2.753,2.753,0,0,1,1.613.821,3.028,3.028,0,0,1,.6,1.531c.664-3.059,1.289-6.127,1.961-9.186,2.774-.256,9.3-.833,9.784-.843-.232,1.313-.571,2.606-.8,3.919-.238.059-4.139.383-5.847.53a16.4,16.4,0,0,0-.382,1.864c1.547-.13,3.092-.3,4.641-.4a21.678,21.678,0,0,1-.787,3.291c-1.527.165-3.061.26-4.59.409-.108.614-.264,1.218-.364,1.834,1.923-.143,3.844-.323,5.765-.485.111,0,.134-.14.186-.214,1.258-2.89,2.538-5.771,3.791-8.664.377-.811.705-1.645,1.1-2.449.975,1.772,3.125,5.674,3.235,5.847,1.727-2.034,5.393-6.584,5.629-6.682.555,3.573,1.156,7.139,1.72,10.71.054-.1,1.613-7.366,2.36-10.89,1.383-.128,2.768-.24,4.152-.369a5.854,5.854,0,0,1,3.308.521,2.363,2.363,0,0,1,1.158,1.659,4.04,4.04,0,0,1-.428,2.621,3.2,3.2,0,0,1-1.7,1.464,3.568,3.568,0,0,1,1.09.365,3.422,3.422,0,0,1,.782.7,11,11,0,0,1,3.646-6.18,11.543,11.543,0,0,1,3.967-2.347,7.916,7.916,0,0,1,4.147-.346,5.333,5.333,0,0,1,3.361,2.181,5.654,5.654,0,0,1,.643,1.308A7.2,7.2,0,0,1,554.35,3598.151Zm-9.674,3.791a5.777,5.777,0,0,0-4.1,3.871,3.359,3.359,0,0,0,.145,2.438,2.551,2.551,0,0,0,1.746,1.328,4.159,4.159,0,0,0,2.772-.486,6.336,6.336,0,0,0,2.114-1.878,4.354,4.354,0,0,0,.869-3.1,2.574,2.574,0,0,0-1.719-2.106A3.38,3.38,0,0,0,544.676,3601.942Zm-13.468.888c-.174.767-.354,1.536-.477,2.314a3.116,3.116,0,0,0,1.873-.465,1.544,1.544,0,0,0,.529-1.511.8.8,0,0,0-.652-.409A5.99,5.99,0,0,0,531.208,3602.83Zm-36.153,3.159c-.134.78-.349,1.543-.482,2.323a3.941,3.941,0,0,0,1.64-.31,1.635,1.635,0,0,0,.817-1.352.674.674,0,0,0-.539-.705A5.006,5.006,0,0,0,495.054,3605.99Zm34.975,2.465c-.21.88-.414,1.765-.577,2.655a4.758,4.758,0,0,0,1.753-.3,1.9,1.9,0,0,0,1.03-1.55.771.771,0,0,0-.522-.807A4.652,4.652,0,0,0,530.029,3608.454Zm-36.174,3.194c-.194.87-.382,1.745-.536,2.625a7.512,7.512,0,0,0,1.448-.181,1.8,1.8,0,0,0,1.258-2.085c-.224-.449-.8-.5-1.245-.472A4.679,4.679,0,0,0,493.855,3611.648Z" transform="translate(-488.705 -3596.769)" fill="#242e3d"/>
      </g>
    </g>
    <g id="Group_7644" data-name="Group 7644" transform="translate(45.043 21.264)">
      <path id="Path_1995" data-name="Path 1995" d="M973.161,3791.6a1.474,1.474,0,0,1-.081.688c-.15.579-.234,1.171-.365,1.754-.506.135-15.387,1.343-15.822,1.351.085-.818.326-1.61.484-2.415C958.23,3792.852,972.338,3791.58,973.161,3791.6Z" transform="translate(-956.893 -3791.597)" fill="#242e3d"/>
    </g>
  </g>
</svg>
