<svg id="Entel" xmlns="http://www.w3.org/2000/svg" width="160" height="84" viewBox="0 0 160 84">
  <g id="Group_7610" data-name="Group 7610">
    <rect id="Rectangle_1675" data-name="Rectangle 1675" width="160" height="84" fill="none"/>
  </g>
  <g id="Group_7609" data-name="Group 7609" transform="translate(37 32.027)">
    <g id="Group_7608" data-name="Group 7608" transform="translate(0 0)">
      <g id="Group_7607" data-name="Group 7607" transform="translate(0 0)">
        <g id="Group_7605" data-name="Group 7605">
          <g id="Group_7599" data-name="Group 7599" transform="translate(81.245 2.282)">
            <path id="Path_1909" data-name="Path 1909" d="M457.044,402.387a2.943,2.943,0,0,1-3.2-3.06V387.762h2.736v11.4c0,.637.273.965.968.965H458.6v2.26Z" transform="translate(-453.846 -387.762)" fill="#1a1818"/>
          </g>
          <g id="Group_7600" data-name="Group 7600">
            <path id="Path_1910" data-name="Path 1910" d="M127.05,390.391a4.212,4.212,0,0,0,4.491,4.515A5.713,5.713,0,0,0,136.19,393l3.112,3a9.83,9.83,0,0,1-7.8,3.192c-4.846,0-9.494-2.179-9.494-10.393,0-6.617,3.624-10.354,8.943-10.354,5.713,0,8.943,4.126,8.943,9.693v2.258Zm7.328-5.644a3.846,3.846,0,0,0-6.855,0,5.537,5.537,0,0,0-.473,2.18h7.8A5.541,5.541,0,0,0,134.377,384.747Z" transform="translate(-122.007 -378.441)" fill="#1a1818"/>
          </g>
          <g id="Group_7601" data-name="Group 7601" transform="translate(68.446 4.666)">
            <path id="Path_1911" data-name="Path 1911" d="M404.632,404.6a2.532,2.532,0,0,0,2.729,2.685,3.506,3.506,0,0,0,2.823-1.134l1.89,1.782a6.034,6.034,0,0,1-4.738,1.9c-2.944,0-5.767-1.3-5.767-6.18,0-3.934,2.2-6.157,5.432-6.157,3.47,0,5.432,2.453,5.432,5.763V404.6Zm4.452-3.356a2.359,2.359,0,0,0-4.164,0,3.246,3.246,0,0,0-.287,1.3h4.738A3.225,3.225,0,0,0,409.083,401.249Z" transform="translate(-401.569 -397.499)" fill="#1a1818"/>
          </g>
          <g id="Group_7602" data-name="Group 7602" transform="translate(48.934 4.709)">
            <path id="Path_1912" data-name="Path 1912" d="M331.9,409.872h-3.032v-7.291a2.184,2.184,0,0,0-.645-1.713,1.9,1.9,0,0,0-1.334-.486,1.928,1.928,0,0,0-1.358.486,2.185,2.185,0,0,0-.644,1.713v7.291h-3.008V397.813h2.939v1.111a3.957,3.957,0,0,1,3.009-1.25,3.85,3.85,0,0,1,2.847,1.065,4.632,4.632,0,0,1,1.227,3.426Z" transform="translate(-321.875 -397.674)" fill="#1a1818"/>
          </g>
          <g id="Group_7603" data-name="Group 7603" transform="translate(61.651 2.309)">
            <path id="Path_1913" data-name="Path 1913" d="M373.815,387.874h3.458V390.5h1.695v2.458h-1.981v6.277a.728.728,0,0,0,.781.775h1.2v2.416h-1.632a3.43,3.43,0,0,1-3.521-3.668" transform="translate(-373.815 -387.874)" fill="#1a1818"/>
          </g>
          <g id="Group_7604" data-name="Group 7604" transform="translate(35.7 4.666)">
            <path id="Path_1914" data-name="Path 1914" d="M278.687,404.6h-7.8a2.648,2.648,0,0,0,.73,1.944,2.676,2.676,0,0,0,2,.741,3.915,3.915,0,0,0,2.824-1.134l1.891,1.782a6.783,6.783,0,0,1-2.01,1.412,6.871,6.871,0,0,1-2.728.486q-5.767,0-5.767-6.18a6.545,6.545,0,0,1,1.508-4.56,5.056,5.056,0,0,1,3.924-1.6,5.148,5.148,0,0,1,4.02,1.643,5.939,5.939,0,0,1,1.412,4.12Zm-3.063-2.06a3.251,3.251,0,0,0-.287-1.3,2.359,2.359,0,0,0-4.164,0,3.246,3.246,0,0,0-.287,1.3Z" transform="translate(-267.823 -397.499)" fill="#1a1818"/>
          </g>
        </g>
        <g id="Group_7606" data-name="Group 7606" transform="translate(19.918 1.342)">
          <path id="Path_1915" data-name="Path 1915" d="M206.242,383.921l-2.881,2.882a8.624,8.624,0,0,1,0,13.708l2.881,2.882a12.687,12.687,0,0,0,0-19.471Z" transform="translate(-203.361 -383.921)" fill="#1a1818"/>
        </g>
      </g>
    </g>
  </g>
</svg>
