<svg id="Ferreyros" xmlns="http://www.w3.org/2000/svg" width="160" height="84" viewBox="0 0 160 84">
  <rect id="Rectangle_1677" data-name="Rectangle 1677" width="160" height="84" fill="none"/>
  <g id="Group_7612" data-name="Group 7612" transform="translate(28 27.527)">
    <g id="Group_7611" data-name="Group 7611">
      <path id="Path_1916" data-name="Path 1916" d="M208.111,142.717c-.645,0-.98-.417-.98-1.136v-1.513h.391v1.5c0,.49.205.755.6.755.41,0,.6-.253.6-.73v-1.528h.391v1.521c0,.73-.354,1.128-1,1.128" transform="translate(-158.187 -109.615)" fill="#141215"/>
      <path id="Path_1917" data-name="Path 1917" d="M218.325,142.678l-1.039-1.636c-.064-.1-.153-.253-.2-.32,0,.1,0,.459,0,.6v1.352h-.379v-2.609h.4l.991,1.591c.067.107.178.3.216.368,0-.1,0-.47,0-.615v-1.344h.38v2.609Z" transform="translate(-164.944 -109.616)" fill="#141215"/>
      <path id="Path_1918" data-name="Path 1918" d="M227.692,142.678l-.221-.619h-1.042l-.216.619h-.406l.939-2.608h.414l.949,2.608Zm-.548-1.569c-.064-.187-.168-.488-.2-.6-.031.112-.124.41-.191.6l-.208.6h.8Z" transform="translate(-171.353 -109.617)" fill="#141215"/>
      <path id="Path_1919" data-name="Path 1919" d="M240.027,142.678v-2.609h1.678v.381h-1.287v.643h.748v.381h-.748v.822h1.344v.381Z" transform="translate(-181.378 -109.616)" fill="#141215"/>
      <path id="Path_1920" data-name="Path 1920" d="M250.369,142.678V141.3c0-.155,0-.383.007-.458-.031.074-.1.26-.168.41l-.633,1.468-.626-1.468c-.064-.15-.139-.335-.167-.41,0,.074.007.3.007.458v1.38h-.37v-2.609h.4l.586,1.388c.063.15.145.342.178.448.037-.107.112-.3.174-.448l.575-1.388h.416v2.609Z" transform="translate(-187.295 -109.616)" fill="#141215"/>
      <path id="Path_1921" data-name="Path 1921" d="M260.32,141.7h-.681v.974h-.384v-2.609h1.091a.767.767,0,0,1,.838.816.778.778,0,0,1-.864.818m.02-1.265h-.7v.9h.7a.4.4,0,0,0,.446-.45.411.411,0,0,0-.446-.447" transform="translate(-194.933 -109.616)" fill="#141215"/>
      <path id="Path_1922" data-name="Path 1922" d="M269.539,141.611l.533,1.067h-.45l-.518-1.033h-.589v1.033h-.385v-2.609h1.144a.753.753,0,0,1,.839.78.722.722,0,0,1-.575.762m-.264-1.173h-.759v.839h.759a.394.394,0,0,0,.444-.418.4.4,0,0,0-.444-.421" transform="translate(-201.19 -109.616)" fill="#141215"/>
      <path id="Path_1923" data-name="Path 1923" d="M277.527,142.678v-2.609h1.679v.381h-1.288v.643h.748v.381h-.748v.822h1.346v.381Z" transform="translate(-207.815 -109.616)" fill="#141215"/>
      <path id="Path_1924" data-name="Path 1924" d="M286.171,142.621a1.209,1.209,0,0,1-.928-.421l.279-.271a.959.959,0,0,0,.679.309c.365,0,.539-.128.539-.381,0-.2-.153-.3-.589-.43-.551-.164-.815-.3-.815-.769a.767.767,0,0,1,.861-.726,1.165,1.165,0,0,1,.852.354l-.275.279a.789.789,0,0,0-.607-.249c-.305,0-.437.15-.437.324s.12.272.57.407c.514.155.835.32.835.786s-.3.79-.965.79" transform="translate(-213.254 -109.519)" fill="#141215"/>
      <path id="Path_1925" data-name="Path 1925" d="M295.286,142.678l-.221-.619h-1.041l-.217.619H293.4l.939-2.608h.413l.95,2.608Zm-.547-1.569c-.065-.187-.168-.488-.2-.6-.03.112-.124.41-.19.6l-.208.6h.8Z" transform="translate(-219.005 -109.617)" fill="#141215"/>
      <path id="Path_1926" data-name="Path 1926" d="M308.008,140.453v.681h.749v.385h-.749v1.159h-.391v-2.609H309.3v.384Z" transform="translate(-229.027 -109.616)" fill="#141215"/>
      <path id="Path_1927" data-name="Path 1927" d="M315.6,142.678v-2.609h1.68v.381h-1.29v.643h.749v.381h-.749v.822h1.345v.381Z" transform="translate(-234.656 -109.616)" fill="#141215"/>
      <path id="Path_1928" data-name="Path 1928" d="M325.406,141.611l.533,1.067h-.45l-.519-1.033h-.587v1.033H324v-2.609h1.143a.753.753,0,0,1,.839.78.721.721,0,0,1-.574.762m-.265-1.173h-.759v.839h.759a.4.4,0,0,0,.445-.418.4.4,0,0,0-.445-.421" transform="translate(-240.576 -109.616)" fill="#141215"/>
      <path id="Path_1929" data-name="Path 1929" d="M334.8,141.611l.534,1.067h-.452l-.518-1.033h-.588v1.033h-.384v-2.609h1.143a.754.754,0,0,1,.839.78.722.722,0,0,1-.575.762m-.264-1.173h-.76v.839h.76a.4.4,0,0,0,.445-.418.4.4,0,0,0-.445-.421" transform="translate(-247.198 -109.616)" fill="#141215"/>
      <path id="Path_1930" data-name="Path 1930" d="M342.783,142.678v-2.609h1.68v.381h-1.289v.643h.75v.381h-.75v.822h1.346v.381Z" transform="translate(-253.819 -109.616)" fill="#141215"/>
      <path id="Path_1931" data-name="Path 1931" d="M351.625,141.645v1.033h-.391v-1.033l-.935-1.576h.459l.405.72c.089.16.223.421.269.518.044-.1.174-.347.267-.515l.409-.722h.451Z" transform="translate(-259.117 -109.616)" fill="#141215"/>
      <path id="Path_1932" data-name="Path 1932" d="M360.254,142.621c-.675,0-1.1-.556-1.1-1.344s.428-1.346,1.1-1.346a.938.938,0,0,1,.887.488l-.348.217a.563.563,0,0,0-.54-.313c-.456,0-.7.369-.7.954s.245.953.7.953a.618.618,0,0,0,.574-.324l.324.217a.991.991,0,0,1-.9.5" transform="translate(-265.358 -109.519)" fill="#141215"/>
      <path id="Path_1933" data-name="Path 1933" d="M368.868,142.621c-.676,0-1.1-.556-1.1-1.344s.427-1.346,1.1-1.346,1.106.555,1.106,1.346-.428,1.344-1.106,1.344m0-2.3c-.456,0-.706.369-.706.954s.25.953.706.953.707-.368.707-.953-.249-.954-.707-.954" transform="translate(-271.431 -109.519)" fill="#141215"/>
      <path id="Path_1934" data-name="Path 1934" d="M379.173,141.611l.534,1.067h-.451l-.518-1.033h-.589v1.033h-.383v-2.609h1.143a.753.753,0,0,1,.838.78.721.721,0,0,1-.574.762m-.264-1.173h-.761v.839h.761a.394.394,0,0,0,.443-.418.4.4,0,0,0-.443-.421" transform="translate(-278.48 -109.616)" fill="#141215"/>
      <path id="Path_1935" data-name="Path 1935" d="M388.225,141.7h-.681v.974h-.383v-2.609h1.091a.766.766,0,0,1,.838.816.778.778,0,0,1-.864.818m.019-1.265h-.7v.9h.7a.4.4,0,0,0,.448-.45.411.411,0,0,0-.448-.447" transform="translate(-285.104 -109.616)" fill="#141215"/>
      <path id="Path_1936" data-name="Path 1936" d="M208.249,73.369h-1.6l-.058.16-1.082,2.9-1.022-2.893-.059-.164H202.35l.139.345,2.051,4.979.006.012,0,.006a.6.6,0,0,1-.03.542.611.611,0,0,1-.517.3,1.121,1.121,0,0,1-.379-.023l-.384-.2.008.407,0,1.059,0,.187.181.055a3.792,3.792,0,0,0,.934.131c1,0,1.471-.879,1.974-2.021,0-.008,2.152-5.448,2.152-5.448l.131-.339Z" transform="translate(-154.816 -62.594)" fill="#141215"/>
      <path id="Path_1937" data-name="Path 1937" d="M129.806,77.18h-4.2a1.59,1.59,0,0,0,1.766,1.628,4.376,4.376,0,0,0,2.011-.562l.04,1.626a6.609,6.609,0,0,1-2.256.413c-2.5,0-3.613-1.517-3.613-3.692,0-1.916,1.123-3.654,3.162-3.654.641,0,3.092,0,3.092,3.72v.521M127.837,76c0-.9-.233-1.749-1.123-1.749-1.11,0-1.11,1.367-1.11,1.749Z" transform="translate(-99.265 -62.291)" fill="#141215"/>
      <path id="Path_1938" data-name="Path 1938" d="M147.571,74.538a14.073,14.073,0,0,0-.054-1.49h1.967c.014.425.042.862.057,1.283h.028c.438-.765.738-1.393,1.983-1.393h.316v2a2.781,2.781,0,0,0-.728-.082c-1.258,0-1.408,1.094-1.408,2.137v3.187h-2.162Z" transform="translate(-116.16 -62.291)" fill="#141215"/>
      <path id="Path_1939" data-name="Path 1939" d="M165.1,74.538a13.982,13.982,0,0,0-.054-1.49h1.97c.014.425.042.862.054,1.283h.027c.438-.765.738-1.393,1.986-1.393h.315v2a2.78,2.78,0,0,0-.727-.082c-1.257,0-1.408,1.094-1.408,2.137v3.187H165.1Z" transform="translate(-128.516 -62.291)" fill="#141215"/>
      <path id="Path_1940" data-name="Path 1940" d="M187.089,77.18h-4.2a1.589,1.589,0,0,0,1.765,1.628,4.389,4.389,0,0,0,2.012-.562l.041,1.626a6.634,6.634,0,0,1-2.257.413c-2.5,0-3.613-1.517-3.613-3.692,0-1.916,1.125-3.654,3.162-3.654.641,0,3.088,0,3.088,3.72v.521M185.122,76c0-.9-.232-1.749-1.12-1.749-1.11,0-1.11,1.367-1.11,1.749Z" transform="translate(-139.651 -62.291)" fill="#141215"/>
      <path id="Path_1941" data-name="Path 1941" d="M225.641,74.538a14.091,14.091,0,0,0-.053-1.49h1.969c.014.425.045.862.057,1.283h.025c.438-.765.741-1.393,1.985-1.393h.316v2a2.766,2.766,0,0,0-.725-.082c-1.257,0-1.409,1.094-1.409,2.137v3.187h-2.164Z" transform="translate(-171.199 -62.291)" fill="#141215"/>
      <path id="Path_1942" data-name="Path 1942" d="M244.487,72.939c2.188,0,3.35,1.519,3.35,3.654,0,2.162-1.162,3.692-3.35,3.692s-3.355-1.531-3.355-3.692c0-2.134,1.165-3.654,3.355-3.654m0,5.869c.754,0,1.107-.82,1.107-2.215s-.353-2.177-1.107-2.177-1.111.78-1.111,2.177.356,2.215,1.111,2.215" transform="translate(-182.157 -62.291)" fill="#141215"/>
      <path id="Path_1943" data-name="Path 1943" d="M270.183,74.841a4.425,4.425,0,0,0-1.739-.382c-.562,0-.806.272-.806.518,0,.438.314.59,1.493,1.025a2,2,0,0,1,1.49,2.08c0,1.588-1.19,2.2-2.628,2.2a7.546,7.546,0,0,1-2.34-.339l.056-1.673a3.521,3.521,0,0,0,1.777.5c1.012,0,1.083-.356,1.083-.67s-.562-.452-1.492-.836a2.212,2.212,0,0,1-1.492-2.19c0-.765.545-2.133,2.669-2.133a6.569,6.569,0,0,1,1.983.285Z" transform="translate(-199.396 -62.291)" fill="#141215"/>
      <path id="Path_1944" data-name="Path 1944" d="M97.2,64.251H90.67v4.117h-3.5v2.687h3.5v3.453h2.919V71.055H97.2V68.368H93.589V66.941H97.2Z" transform="translate(-73.62 -56.166)" fill="#141215"/>
      <path id="Path_1945" data-name="Path 1945" d="M118.863,36.846H41.229v27.11h104V36.846ZM42.7,62.48V38.321H118.86V62.481H42.7Z" transform="translate(-41.229 -36.846)" fill="#141215"/>
      <path id="Path_1946" data-name="Path 1946" d="M317.193,72.389a1.614,1.614,0,0,0,.565-1.345V69.168h-2.633v2.546a.661.661,0,0,1-.659.662.641.641,0,0,1-.638-.662V64.5a.639.639,0,0,1,.638-.662.659.659,0,0,1,.659.662v2.56h2.63V64.4c0-1.469-.962-2.68-3.314-2.682-2.408,0-3.321,1.215-3.321,2.684v7.533a2.558,2.558,0,0,0,2.644,2.558h.815l2.613-2.108" transform="translate(-231.498 -54.383)" fill="#fff"/>
      <path id="Path_1947" data-name="Path 1947" d="M362.525,73.275V64.993h-1.818V62.554h6.575v2.439h-1.825V75.07h-.78Z" transform="translate(-266.455 -54.969)" fill="#fff"/>
      <path id="Path_1948" data-name="Path 1948" d="M341.482,62.6h-3.667l-2.137,9.542,3.977-3.2,4.149,3.463Zm-2.534,5.735.707-3.608.707,3.608h-1.415" transform="translate(-248.81 -55.005)" fill="#fff"/>
      <path id="Path_1949" data-name="Path 1949" d="M384.726,62.959a.784.784,0,1,1,.786.78.78.78,0,0,1-.786-.78m1.43,0a.646.646,0,1,0-.644.645.642.642,0,0,0,.644-.645m-.808.052v.4H385.2v-.918h.3c.169,0,.344.046.344.251a.214.214,0,0,1-.189.216v.006c.127.021.143.078.158.178a1.516,1.516,0,0,0,.05.268h-.18c-.012-.053-.025-.113-.031-.167a.346.346,0,0,0-.054-.195.175.175,0,0,0-.133-.037Zm.152-.145c.134,0,.168-.059.168-.13s-.034-.1-.15-.1h-.17v.234h.152" transform="translate(-283.388 -54.708)" fill="#fff"/>
      <path id="Path_1950" data-name="Path 1950" d="M339.406,92.077l-13.506,0,6.849-5.431Z" transform="translate(-241.916 -71.952)" fill="#fff" fill-rule="evenodd"/>
    </g>
  </g>
</svg>
