<svg id="Isil" xmlns="http://www.w3.org/2000/svg" width="160" height="84" viewBox="0 0 160 84">
  <rect id="Rectangle_1667" data-name="Rectangle 1667" width="160" height="84" fill="none"/>
  <path id="Path_1832" data-name="Path 1832" d="M646.734,287.555h4.458v-15h-4.458Zm27.762-20.8-10.223,17.013h-4.366v-11.22H655.45v15H662l-5.3,8.826h2.96l17.8-29.623Zm-50.28,20.8h4.457v-15h-4.457Zm14.108-9.5c-1.7-.565-2.047-.87-2.047-1.456,0-.524.438-.827,1.328-.827a8.331,8.331,0,0,1,3.068.721l1.824-3.035,0-.012a10.559,10.559,0,0,0-4.982-1.065c-2.957,0-5.369,1.542-5.369,4.63,0,2.631,1.392,3.634,4.457,4.719,2.043.718,2.412,1.021,2.412,1.652,0,.651-.563.957-1.432.957a10.863,10.863,0,0,1-3.9-.891l-1.86,3.091a13.873,13.873,0,0,0,5.687,1.192c3.046,0,5.635-1.348,5.635-4.891,0-2.458-1.415-3.654-4.828-4.785" transform="translate(-568.004 -237.135)" fill="#242e3d"/>
</svg>
