<svg xmlns="http://www.w3.org/2000/svg" width="637.31" height="150.22" viewBox="0 0 637.31 150.22"><title>Logo</title><polygon points="621.42 138.15 599.83 138.15 604.03 116.56 625.62 116.56 621.42 138.15" fill="#f27e20"/><path d="M315,138.15H291.74l10-51.47a95,95,0,0,0,1.61-10.9,15,15,0,0,0-1.34-7.5A11.45,11.45,0,0,0,296.68,63,17.08,17.08,0,0,0,288.77,61q-10.83,0-15.62,5.84A37.07,37.07,0,0,0,266.54,78a78.14,78.14,0,0,0-2.82,10.47L263,92.09l-8.95,46.06h-23.2l10-51.47.44-2.26a48.28,48.28,0,0,0,1.07-8.64,15.93,15.93,0,0,0-1.72-6.89,12.66,12.66,0,0,0-5.51-5.76A16.45,16.45,0,0,0,227,61q-12.21,0-17.12,8.2t-7.75,22.85l-8.95,46.06H170l18.82-96.83h21.28l-1.73,8.9a26.2,26.2,0,0,1,12.17-8.85,43.47,43.47,0,0,1,15.56-3q16.37,0,23.43,12l1.66,3.15,3-3.15a42,42,0,0,1,14.38-9,46.62,46.62,0,0,1,16.36-3,42.15,42.15,0,0,1,16,2.78,25.09,25.09,0,0,1,11.26,9.32,28.09,28.09,0,0,1,4.91,14.63A78.51,78.51,0,0,1,325.47,84Z" fill="#232f3e"/><path d="M439,89.82a66.42,66.42,0,0,1-7,18.61,70,70,0,0,1-12.65,17,55.3,55.3,0,0,1-17.56,11.39A53.73,53.73,0,0,1,381,141.11a39,39,0,0,1-17.91-3.88,24.7,24.7,0,0,1-11.42-12.17l-2.9,13.09H327.51l25.1-129.1h23.21l-8.28,42.57a38,38,0,0,1,15-10,50.72,50.72,0,0,1,17.73-3.27q20.93,0,31.85,15.21T439,89.82ZM415.73,90q2.36-12.14-3.88-20.46t-18.44-8.33A35.28,35.28,0,0,0,371.3,69,31.94,31.94,0,0,0,359,88.61q-2.46,12.66,4,21.24t19.35,8.58a32.09,32.09,0,0,0,21.64-8.15A34.84,34.84,0,0,0,415.73,90Z" fill="#232f3e"/><path d="M549.35,89.16a43.4,43.4,0,0,1-1.67,5.91c-.78,2.21-1.35,3.89-1.68,5.05H470.81a19.69,19.69,0,0,0,7,13.3,22.44,22.44,0,0,0,14.89,5q14.15,0,23.23-8.19h25.82q-7.07,13-22.15,21.94t-30.43,8.93q-20.94,0-33.07-14.77t-8-35.82q4.2-21.55,22-36.86t39.44-15.3q20.6,0,32.21,15.13T549.35,89.16Zm-21.68-9.63a19.76,19.76,0,0,0-7.34-13.39q-6.2-4.92-15.44-4.93a34.45,34.45,0,0,0-17.48,5.1,32.49,32.49,0,0,0-13,13.22Z" fill="#232f3e"/><path d="M609.76,61a24.65,24.65,0,0,0-14.13,4q-5.93,4-8,8.71a60.8,60.8,0,0,0-3.53,12.35L574,138.15H550.81l18.82-96.83h21.11l-1.69,8.73a35.7,35.7,0,0,1,10.79-8.85,27.36,27.36,0,0,1,12.58-2.84h1.75Z" fill="#232f3e"/><polygon points="37.48 41.32 15.89 41.32 11.69 62.91 33.28 62.91 33.28 62.91 29.08 84.5 50.67 84.5 59.06 41.32 37.48 41.32" fill="#f27e20"/><path d="M151.49,41.32l-2.25,11.61c-6.82-9-17.43-14.63-30.36-14.63-26.27,0-52,23-57.57,51.44s11.3,51.43,37.57,51.43c12.93,0,25.72-5.59,36.05-14.63l-2.26,11.61h21.46L173,41.32Zm-43.88,77c-16,0-26.52-12.8-23.45-28.6s18.55-28.61,34.57-28.61c15.42,0,25.68,11.87,23.69,26.85l-.68,3.51C137.91,106.47,123,118.34,107.61,118.34Z" fill="#232f3e"/></svg>