<svg xmlns="http://www.w3.org/2000/svg" width="75.975" height="16.351" viewBox="0 0 75.975 16.351">
  <g id="Group_7669" data-name="Group 7669" transform="translate(-255.114 -447.297)">
    <path id="Path_2022" data-name="Path 2022" d="M726.987,535.739h-2.672l.519-2.672h2.672Z" transform="translate(-396.418 -72.465)" fill="#fd6b00"/>
    <path id="Path_2023" data-name="Path 2023" d="M399.328,483.029h-2.872l1.238-6.369a11.424,11.424,0,0,0,.2-1.349,1.861,1.861,0,0,0-.165-.929,1.42,1.42,0,0,0-.66-.658,2.113,2.113,0,0,0-.979-.237,2.362,2.362,0,0,0-1.933.723,4.564,4.564,0,0,0-.817,1.371,9.563,9.563,0,0,0-.349,1.3l-.088.453-1.108,5.7h-2.871l1.238-6.369.054-.281a6.12,6.12,0,0,0,.132-1.069,1.988,1.988,0,0,0-.212-.853,1.571,1.571,0,0,0-.682-.713,2.043,2.043,0,0,0-1.007-.259,2.264,2.264,0,0,0-2.118,1.014,8.914,8.914,0,0,0-.959,2.828l-1.108,5.7h-2.872l2.329-11.983h2.633l-.214,1.1a3.239,3.239,0,0,1,1.506-1.1,5.391,5.391,0,0,1,1.926-.372,3.1,3.1,0,0,1,2.9,1.489l.205.389.377-.389a5.175,5.175,0,0,1,1.78-1.112,5.762,5.762,0,0,1,2.025-.378,5.2,5.2,0,0,1,1.982.345,3.106,3.106,0,0,1,1.393,1.153,3.47,3.47,0,0,1,.608,1.811,9.724,9.724,0,0,1-.206,2.338Z" transform="translate(-106.685 -19.756)" fill="#fff"/>
    <path id="Path_2024" data-name="Path 2024" d="M520.861,457.293a8.236,8.236,0,0,1-.868,2.3,8.629,8.629,0,0,1-1.565,2.109,6.847,6.847,0,0,1-2.174,1.409,6.629,6.629,0,0,1-2.563.527,4.834,4.834,0,0,1-2.217-.48,3.065,3.065,0,0,1-1.413-1.506l-.358,1.62h-2.634l3.106-15.977h2.872l-1.024,5.268a4.706,4.706,0,0,1,1.859-1.236,6.28,6.28,0,0,1,2.194-.4,4.547,4.547,0,0,1,3.942,1.883A5.563,5.563,0,0,1,520.861,457.293Zm-2.875.022a3.065,3.065,0,0,0-.48-2.532,2.669,2.669,0,0,0-2.283-1.03,4.366,4.366,0,0,0-2.735.966,3.952,3.952,0,0,0-1.529,2.425,3.178,3.178,0,0,0,.494,2.629,2.8,2.8,0,0,0,2.395,1.062,3.977,3.977,0,0,0,2.679-1.008A4.321,4.321,0,0,0,517.986,457.315Z" transform="translate(-212.871 0)" fill="#fff"/>
    <path id="Path_2025" data-name="Path 2025" d="M615.087,476.967a5.211,5.211,0,0,1-.207.732q-.144.409-.208.624h-9.3a2.438,2.438,0,0,0,.868,1.647,2.778,2.778,0,0,0,1.843.62,4.13,4.13,0,0,0,2.875-1.014h3.195a7.161,7.161,0,0,1-2.741,2.716,7.324,7.324,0,0,1-3.766,1.105,5.012,5.012,0,0,1-4.092-1.829,5.11,5.11,0,0,1-.995-4.432,7.878,7.878,0,0,1,2.721-4.561,7.313,7.313,0,0,1,4.881-1.894,4.744,4.744,0,0,1,3.986,1.873A5.269,5.269,0,0,1,615.087,476.967Zm-2.684-1.191a2.448,2.448,0,0,0-.908-1.657,2.975,2.975,0,0,0-1.911-.61,4.271,4.271,0,0,0-2.163.631,4.021,4.021,0,0,0-1.6,1.636Z" transform="translate(-293.436 -19.756)" fill="#fff"/>
    <path id="Path_2026" data-name="Path 2026" d="M692.5,473.487a3.051,3.051,0,0,0-1.748.5,2.616,2.616,0,0,0-.986,1.077,7.532,7.532,0,0,0-.437,1.529l-1.252,6.441h-2.872l2.329-11.983h2.613l-.21,1.08a4.426,4.426,0,0,1,1.336-1.1,3.4,3.4,0,0,1,1.557-.351h.216Z" transform="translate(-363.377 -19.756)" fill="#fff"/>
    <path id="Path_2027" data-name="Path 2027" d="M258.3,473.044h-2.672l-.519,2.672h2.672l-.519,2.672h2.672l1.039-5.343Z" transform="translate(0 -21.753)" fill="#fd6b00"/>
    <path id="Path_2028" data-name="Path 2028" d="M305.151,471.005l-.279,1.437a4.584,4.584,0,0,0-3.757-1.811c-3.251,0-6.441,2.85-7.124,6.366s1.4,6.366,4.65,6.366a6.888,6.888,0,0,0,4.461-1.811l-.279,1.437h2.655l2.329-11.983Zm-5.431,9.532a2.852,2.852,0,0,1-2.9-3.541,4.539,4.539,0,0,1,4.278-3.541,2.837,2.837,0,0,1,2.932,3.324l-.084.434A4.549,4.549,0,0,1,299.72,480.537Z" transform="translate(-32.737 -19.714)" fill="#fff"/>
  </g>
</svg>
