<svg id="Plazave" xmlns="http://www.w3.org/2000/svg" width="160" height="84" viewBox="0 0 160 84">
  <rect id="Rectangle_1672" data-name="Rectangle 1672" width="160" height="84" fill="none"/>
  <g id="Group_7597" data-name="Group 7597" transform="translate(36 24.835)">
    <g id="Group_7596" data-name="Group 7596">
      <path id="Path_1901" data-name="Path 1901" d="M1273.341,321.856a5.649,5.649,0,0,0-5.706-5.934,5.934,5.934,0,0,0,.026,11.867,7,7,0,0,0,4.668-1.684,1.357,1.357,0,0,0-.018-1.81,1.448,1.448,0,0,0-1.937-.057,4.157,4.157,0,0,1-2.584.908,2.629,2.629,0,0,1-2.8-2.279h7.236a1.055,1.055,0,0,0,1.115-1.011m-3.087-1.193h-5.212a2.508,2.508,0,0,1,2.593-2.1,2.587,2.587,0,0,1,2.619,2.1" transform="translate(-1198.355 -303.866)" fill="#242e3d"/>
      <path id="Path_1902" data-name="Path 1902" d="M1111.78,106.927a16.015,16.015,0,0,0-4.683-.606c-6.866,0-15,5.057-20.489,13.094a29.668,29.668,0,0,0-3.5,6.162,31.7,31.7,0,0,0-.326-5.948c-.3-1.506-.829-1.918-1.617-2.117a3.066,3.066,0,0,0-2.93,1.049,5.992,5.992,0,0,1,1.517,3.547,67.469,67.469,0,0,1,.28,7.158c.006.585-.112.807.338.807h2.544a1.009,1.009,0,0,0,1.028-.55c.985-2.389,3.793-8.18,7.185-11.705,5.7-5.922,10.568-7.968,15.776-7.968,2.476,0,4.155.331,5.237,1.041a2.1,2.1,0,0,0-.358-3.964" transform="translate(-1025.395 -106.321)" fill="#242e3d"/>
      <path id="Path_1903" data-name="Path 1903" d="M1492.315,326.254V321.7a5.65,5.65,0,0,0-5.939-5.786,5.953,5.953,0,0,0-5.94,5.934c0,3.438,2.19,5.933,5.551,5.933a3.905,3.905,0,0,0,3.267-1.683,1.563,1.563,0,0,0,1.53,1.683,1.606,1.606,0,0,0,1.53-1.632m-3.139-4.3a2.909,2.909,0,0,1-2.9,3.135c-1.79,0-2.7-1.4-2.7-3.135a2.818,2.818,0,1,1,5.6,0" transform="translate(-1404.464 -303.861)" fill="#242e3d"/>
      <path id="Path_1904" data-name="Path 1904" d="M390.68,229V214.329a1.582,1.582,0,0,0-1.557-1.58,1.6,1.6,0,0,0-1.582,1.58V229a1.582,1.582,0,0,0,1.582,1.555A1.56,1.56,0,0,0,390.68,229" transform="translate(-374.43 -206.627)" fill="#242e3d"/>
      <path id="Path_1905" data-name="Path 1905" d="M475.226,326.254V321.7a5.651,5.651,0,0,0-5.939-5.786,5.952,5.952,0,0,0-5.939,5.934c0,3.438,2.19,5.933,5.55,5.933a3.907,3.907,0,0,0,3.268-1.683,1.563,1.563,0,0,0,1.53,1.683,1.606,1.606,0,0,0,1.53-1.632m-3.138-4.3a2.91,2.91,0,0,1-2.9,3.135c-1.79,0-2.7-1.4-2.7-3.135a2.818,2.818,0,1,1,5.6,0" transform="translate(-445.877 -303.861)" fill="#242e3d"/>
      <path id="Path_1906" data-name="Path 1906" d="M701.356,329.187a1.317,1.317,0,0,0-1.3-1.3h-4.564l5.42-6.615a1.451,1.451,0,0,0,.338-.907A1.36,1.36,0,0,0,699.9,319h-7.339a1.3,1.3,0,1,0,0,2.59h4.461L691.6,328.2a1.515,1.515,0,0,0-.337.984,1.416,1.416,0,0,0,1.3,1.3c.726.026,1.479,0,2.231,0h5.264a1.318,1.318,0,0,0,1.3-1.3" transform="translate(-660.687 -306.763)" fill="#242e3d"/>
      <path id="Path_1907" data-name="Path 1907" d="M885.872,326.254V321.7a5.65,5.65,0,0,0-5.939-5.786,5.952,5.952,0,0,0-5.94,5.934c0,3.438,2.19,5.933,5.55,5.933a3.906,3.906,0,0,0,3.268-1.683,1.563,1.563,0,0,0,1.53,1.683,1.606,1.606,0,0,0,1.53-1.632m-3.138-4.3a2.91,2.91,0,0,1-2.9,3.135c-1.79,0-2.7-1.4-2.7-3.135a2.818,2.818,0,1,1,5.6,0" transform="translate(-832.904 -303.861)" fill="#242e3d"/>
      <path id="Path_1908" data-name="Path 1908" d="M171.471,321.836a5.74,5.74,0,0,0-5.623-5.934,3.792,3.792,0,0,0-3.213,1.685,1.617,1.617,0,0,0-1.477-1.685,1.582,1.582,0,0,0-1.555,1.581V332.15a1.559,1.559,0,0,0,1.555,1.555,1.581,1.581,0,0,0,1.581-1.555v-5.986a3.7,3.7,0,0,0,3.109,1.606,5.739,5.739,0,0,0,5.623-5.934m-3.135,0a2.817,2.817,0,1,1-2.8-3.134,2.83,2.83,0,0,1,2.8,3.134" transform="translate(-159.603 -303.847)" fill="#242e3d"/>
    </g>
  </g>
</svg>
