<svg id="Utec" xmlns="http://www.w3.org/2000/svg" width="160" height="83" viewBox="0 0 160 83">
  <rect id="Rectangle_1670" data-name="Rectangle 1670" width="160" height="83" fill="none"/>
  <g id="Group_7562" data-name="Group 7562" transform="translate(39.994 22.961)">
    <g id="Group_7561" data-name="Group 7561">
      <path id="Path_1833" data-name="Path 1833" d="M282.328,117.044h1.561v6.227c0,2.016-1.008,2.985-2.689,2.985-1.661,0-2.668-1.067-2.668-3.064v-6.148h1.561v-2h-5.219v2H276.3v6.266c0,3.36,2,4.982,4.9,4.982,2.866,0,4.863-1.621,4.863-5.021v-6.227h1.423v-2h-5.159Z" transform="translate(-274.875 -99.198)" fill="#242e3d"/>
      <path id="Path_1834" data-name="Path 1834" d="M317.135,118.763h2.115v-1.779h2.412v9.074h-1.621v2h5.476v-2H323.9v-9.074h2.412v1.779h2.115v-3.716H317.135Z" transform="translate(-303.635 -99.199)" fill="#242e3d"/>
      <path id="Path_1835" data-name="Path 1835" d="M363.767,126.078h-3.875V122.4h3.934v-1.9h-3.934v-3.479h3.855v1.739h2.135v-3.716h-9.706v2h1.482v9.014h-1.482v2H365.9v-3.716h-2.135Z" transform="translate(-330.205 -99.199)" fill="#242e3d"/>
      <path id="Path_1836" data-name="Path 1836" d="M403.295,116.559a6.713,6.713,0,0,0-2.2-1.605,6.435,6.435,0,0,0-1.872-.561h0c-.078-.012-.157-.021-.235-.031-.105-.012-.212-.023-.321-.032l-.11-.009c-.158-.01-.317-.017-.479-.017h-.039c-.221,0-.438.011-.653.029l-.138.014c-.117.011-.23.029-.344.045a6.347,6.347,0,0,0-5.678,6.034c-.015.2-.027.408-.027.619s.012.415.027.618A6.347,6.347,0,0,0,396.9,127.7c.114.016.227.034.344.045l.138.014c.215.019.432.029.653.029h.039c.161,0,.32-.007.479-.017l.11-.008c.109-.008.215-.02.321-.032.079-.01.157-.018.235-.031h0a6.446,6.446,0,0,0,1.872-.561,6.714,6.714,0,0,0,2.2-1.6h0v-2.549h-2.141V124.6a5.181,5.181,0,0,1-1.2.729,4.69,4.69,0,0,1-1.251.343c-.063.008-.128.013-.192.019-.1.009-.2.013-.308.018l-.168.005a4.666,4.666,0,0,1,0-9.327c.058,0,.112,0,.168.006.106,0,.21.009.308.017.064.005.129.011.192.019a4.684,4.684,0,0,1,1.252.343,5.168,5.168,0,0,1,1.2.729v1.612h2.141V116.56h0Z" transform="translate(-354.038 -98.693)" fill="#242e3d"/>
      <path id="Path_1837" data-name="Path 1837" d="M278.821,167.17v-1.428h.311v1.418a.737.737,0,0,1-.828.847.774.774,0,0,1-.866-.847v-1.418h.349v1.428c0,.446.221.561.536.561s.5-.122.5-.561" transform="translate(-276.619 -133.699)" fill="#242e3d"/>
      <path id="Path_1838" data-name="Path 1838" d="M285.155,165.742h.4l.978,1.653h.006v-1.653h.3v2.246h-.321l-1.062-1.8h-.006v1.8h-.3Z" transform="translate(-281.871 -133.698)" fill="#242e3d"/>
      <rect id="Rectangle_1702" data-name="Rectangle 1702" width="0.353" height="2.246" transform="translate(5.758 32.043)" fill="#242e3d"/>
      <path id="Path_1839" data-name="Path 1839" d="M296.006,165.848v-.106h.327l.6,1.816h.006l.606-1.816h.3v.106l-.741,2.14h-.363Z" transform="translate(-289.255 -133.698)" fill="#242e3d"/>
      <path id="Path_1840" data-name="Path 1840" d="M303.743,165.742h1.376v.27h-1.03v.7h.754v.257h-.754v.757h1.065v.264h-1.411Z" transform="translate(-294.521 -133.698)" fill="#242e3d"/>
      <path id="Path_1841" data-name="Path 1841" d="M310.59,166.794h.308c.3,0,.459-.109.459-.395s-.164-.391-.459-.391h-.308Zm.423.253a1,1,0,0,1-.106,0h-.318v.937h-.347v-2.246h.664c.5,0,.8.2.8.639a.589.589,0,0,1-.369.6l.484.9v.106h-.318Z" transform="translate(-298.945 -133.698)" fill="#242e3d"/>
      <path id="Path_1842" data-name="Path 1842" d="M316.864,167.777v-.282h.122a.719.719,0,0,0,.552.205c.292,0,.462-.119.462-.363,0-.279-.228-.318-.51-.4-.395-.115-.593-.276-.593-.638,0-.391.279-.619.715-.619a1.081,1.081,0,0,1,.6.151v.272h-.118a.694.694,0,0,0-.465-.157c-.285,0-.423.119-.423.327,0,.234.17.3.442.365.459.125.677.257.677.661,0,.436-.286.664-.773.664a1.14,1.14,0,0,1-.683-.189" transform="translate(-303.451 -133.658)" fill="#242e3d"/>
      <rect id="Rectangle_1703" data-name="Rectangle 1703" width="0.353" height="2.246" transform="translate(15.532 32.043)" fill="#242e3d"/>
      <path id="Path_1843" data-name="Path 1843" d="M327.7,167.725c.529,0,.773-.24.773-.863s-.244-.853-.773-.853h-.286v1.716Zm-.632-1.983h.641a.982.982,0,0,1,1.123,1.116,1,1,0,0,1-1.132,1.13h-.632Z" transform="translate(-310.397 -133.699)" fill="#242e3d"/>
      <path id="Path_1844" data-name="Path 1844" d="M334.5,167.1h.654l-.324-.991h-.007Zm-.571.779.741-2.14h.372l.738,2.14v.106h-.33l-.209-.629h-.824l-.2.629h-.286Z" transform="translate(-315.061 -133.698)" fill="#242e3d"/>
      <path id="Path_1845" data-name="Path 1845" d="M342.344,167.725c.529,0,.773-.24.773-.863s-.244-.853-.773-.853h-.286v1.716Zm-.632-1.983h.641a.982.982,0,0,1,1.123,1.116,1,1,0,0,1-1.132,1.13h-.632Z" transform="translate(-320.361 -133.699)" fill="#242e3d"/>
      <path id="Path_1846" data-name="Path 1846" d="M353.035,167.725c.529,0,.773-.24.773-.863s-.244-.853-.773-.853h-.286v1.716Zm-.632-1.983h.642a.982.982,0,0,1,1.123,1.116,1,1,0,0,1-1.132,1.13H352.4Z" transform="translate(-327.636 -133.699)" fill="#242e3d"/>
      <path id="Path_1847" data-name="Path 1847" d="M360.019,165.742H361.4v.27h-1.03v.7h.754v.257h-.754v.757h1.065v.264h-1.411Z" transform="translate(-332.819 -133.698)" fill="#242e3d"/>
      <rect id="Rectangle_1704" data-name="Rectangle 1704" width="0.353" height="2.246" transform="translate(30.261 32.043)" fill="#242e3d"/>
      <path id="Path_1848" data-name="Path 1848" d="M373.181,165.742h.4l.978,1.653h.006v-1.653h.3v2.246h-.321l-1.062-1.8h-.006v1.8h-.3Z" transform="translate(-341.777 -133.698)" fill="#242e3d"/>
      <path id="Path_1849" data-name="Path 1849" d="M380.536,166.824a1.014,1.014,0,0,1,1.059-1.142,1.218,1.218,0,0,1,.632.151v.289H382.1a.685.685,0,0,0-.5-.17c-.42,0-.7.254-.7.86s.228.9.651.9a.88.88,0,0,0,.407-.08v-.581h-.375v-.244h.722v.985a1.56,1.56,0,0,1-.754.173c-.632,0-1.02-.395-1.02-1.142" transform="translate(-346.782 -133.658)" fill="#242e3d"/>
      <path id="Path_1850" data-name="Path 1850" d="M388.453,165.742h1.376v.27H388.8v.7h.754v.257H388.8v.757h1.065v.264h-1.411Z" transform="translate(-352.17 -133.698)" fill="#242e3d"/>
      <path id="Path_1851" data-name="Path 1851" d="M394.943,165.742h.4l.978,1.653h.006v-1.653h.3v2.246h-.321l-1.062-1.8h-.006v1.8h-.3Z" transform="translate(-356.587 -133.698)" fill="#242e3d"/>
      <rect id="Rectangle_1705" data-name="Rectangle 1705" width="0.353" height="2.246" transform="translate(40.831 32.043)" fill="#242e3d"/>
      <path id="Path_1852" data-name="Path 1852" d="M406.267,165.742h1.376v.27h-1.03v.7h.754v.257h-.754v.757h1.065v.264h-1.411Z" transform="translate(-364.293 -133.698)" fill="#242e3d"/>
      <path id="Path_1853" data-name="Path 1853" d="M413.113,166.794h.308c.3,0,.459-.109.459-.395s-.164-.391-.459-.391h-.308Zm.424.253a1,1,0,0,1-.106,0h-.318v.937h-.346v-2.246h.664c.5,0,.8.2.8.639a.589.589,0,0,1-.369.6l.484.9v.106h-.318Z" transform="translate(-368.717 -133.698)" fill="#242e3d"/>
      <path id="Path_1854" data-name="Path 1854" d="M419.911,164.621l.138-.305h.33v.1l-.279.282h-.189Zm-.07.15h.353v2.246h-.353Z" transform="translate(-373.531 -132.728)" fill="#242e3d"/>
      <path id="Path_1855" data-name="Path 1855" d="M423.527,167.1h.654l-.324-.991h-.007Zm-.571.779.741-2.14h.372l.738,2.14v.106h-.33l-.209-.629h-.825l-.2.629h-.286Z" transform="translate(-375.651 -133.698)" fill="#242e3d"/>
      <path id="Path_1856" data-name="Path 1856" d="M352.95,179.71v-.9l-.686-1.235v-.112h.318l.552,1.017h0l.539-1.017h.279v.112L353.3,178.8v.908Z" transform="translate(-327.542 -141.676)" fill="#242e3d"/>
      <path id="Path_1857" data-name="Path 1857" d="M362.745,179.71v-1.983H362.1v-.264h1.639v.264h-.645v1.983Z" transform="translate(-334.236 -141.676)" fill="#242e3d"/>
      <path id="Path_1858" data-name="Path 1858" d="M369.214,177.464h1.376v.27h-1.03v.7h.754v.257h-.754v.757h1.065v.264h-1.411Z" transform="translate(-339.077 -141.676)" fill="#242e3d"/>
      <path id="Path_1859" data-name="Path 1859" d="M375.212,178.546a1.025,1.025,0,0,1,1.027-1.142,1.041,1.041,0,0,1,.648.18v.272h-.135a.674.674,0,0,0-.5-.186c-.408,0-.68.3-.68.863,0,.594.241.892.655.892a.744.744,0,0,0,.577-.244h.112v.266a1.026,1.026,0,0,1-.7.241c-.6,0-1-.414-1-1.142" transform="translate(-343.159 -141.635)" fill="#242e3d"/>
      <path id="Path_1860" data-name="Path 1860" d="M382.617,177.464h.4l.978,1.653H384v-1.653h.3v2.246h-.321l-1.062-1.8h-.006v1.8h-.3Z" transform="translate(-348.199 -141.676)" fill="#242e3d"/>
      <path id="Path_1861" data-name="Path 1861" d="M391.647,178.552c0-.6-.282-.888-.658-.888s-.658.292-.658.888.279.876.658.876.658-.279.658-.876m-1.675-.006a1.022,1.022,0,1,1,1.017,1.142,1.03,1.03,0,0,1-1.017-1.142" transform="translate(-353.204 -141.635)" fill="#242e3d"/>
      <path id="Path_1862" data-name="Path 1862" d="M398.422,179.71v-2.246h.346v1.983h1v.263Z" transform="translate(-358.954 -141.676)" fill="#242e3d"/>
      <path id="Path_1863" data-name="Path 1863" d="M405.5,178.552c0-.6-.282-.888-.658-.888s-.657.292-.657.888.279.876.657.876.658-.279.658-.876m-1.675-.006a1.022,1.022,0,1,1,1.017,1.142,1.03,1.03,0,0,1-1.017-1.142" transform="translate(-362.633 -141.635)" fill="#242e3d"/>
      <path id="Path_1864" data-name="Path 1864" d="M411.906,178.546a1.014,1.014,0,0,1,1.059-1.142,1.217,1.217,0,0,1,.632.151v.289h-.125a.683.683,0,0,0-.5-.17c-.42,0-.7.254-.7.86s.228.9.651.9a.88.88,0,0,0,.407-.08v-.581h-.375v-.244h.722v.985a1.56,1.56,0,0,1-.754.173c-.632,0-1.02-.395-1.02-1.142" transform="translate(-368.131 -141.635)" fill="#242e3d"/>
      <path id="Path_1865" data-name="Path 1865" d="M419.914,176.343l.138-.305h.33v.1l-.279.282h-.189Zm-.071.15h.353v2.246h-.353Z" transform="translate(-373.532 -140.706)" fill="#242e3d"/>
      <path id="Path_1866" data-name="Path 1866" d="M423.529,178.825h.655l-.324-.991h-.007Zm-.571.779.741-2.14h.372l.738,2.14v.106h-.33l-.209-.629h-.825l-.2.629h-.286Z" transform="translate(-375.652 -141.676)" fill="#242e3d"/>
      <path id="Path_1867" data-name="Path 1867" d="M452.116,86.738l1.457-.947V77.028l5.261-3.42L446.26,65.436v5.9l3.745,2.436v5.581l2.11-1.371Z" transform="translate(-391.511 -65.435)" fill="#242e3d"/>
      <path id="Path_1868" data-name="Path 1868" d="M498.195,69.881V65.435l-12.572,8.173.558.363,11.406-7.413V69.55l-6.1,3.965v2.9l6.1-3.965v2.929l-4.616,3,.558.363,4.667-3.033V71.333L492.1,75.3V73.846Z" transform="translate(-418.299 -65.435)" fill="#242e3d"/>
      <path id="Path_1869" data-name="Path 1869" d="M513.866,104.463l.56.364,2.382-1.548v3.1l.609.4v-4.614Z" transform="translate(-437.519 -90.425)" fill="#242e3d"/>
      <path id="Path_1870" data-name="Path 1870" d="M485.622,91.021v16.171l12.572,8.172v-7.3l-6.834-4.441v-1.594l6.833,4.439V99.193Z" transform="translate(-418.298 -82.848)" fill="#242e3d"/>
      <path id="Path_1871" data-name="Path 1871" d="M446.868,99.525l3.57-2.32,1.676-1.087,0-.732-5.86,3.808v16.172l12.575-8.172v-.728l-11.965,7.778Zm6.7-5.083v.725l1.308-.85v0l3.954-2.57v-.726Z" transform="translate(-391.51 -82.848)" fill="#242e3d"/>
    </g>
  </g>
</svg>
