<?xml version="1.0" encoding="utf-8"?>
<!-- Generator: Adobe Illustrator 24.0.3, SVG Export Plug-In . SVG Version: 6.00 Build 0)  -->
<svg version="1.1" id="Layer_1" xmlns="http://www.w3.org/2000/svg" xmlns:xlink="http://www.w3.org/1999/xlink" x="0px" y="0px"
	 viewBox="0 0 37.79 34.45" style="enable-background:new 0 0 37.79 34.45;" xml:space="preserve">
<style type="text/css">
	.st0{fill:#232F3E;}
	.st1{fill:#FFFFFF;}
	.st2{fill:#231F20;}
	.st3{fill:#F27E20;}
</style>
<rect x="1136.89" y="-459.29" class="st0" width="1000" height="1000"/>
<rect x="3176.89" y="-459.29" class="st1" width="1000" height="1000"/>
<rect x="4196.89" y="-459.29" class="st2" width="1000" height="1000"/>
<rect x="2156.89" y="-459.29" class="st3" width="1000" height="1000"/>
<polygon class="st3" points="858.43,91 841.21,91 844.56,73.78 861.78,73.78 "/>
<path class="st0" d="M613.94,91h-18.51l7.98-41.06c0.7-3.62,1.13-6.52,1.28-8.7c0.14-2.18-0.21-4.18-1.06-5.99
	c-0.86-1.81-2.27-3.22-4.25-4.24c-1.98-1.02-4.09-1.53-6.31-1.53c-5.76,0-9.91,1.55-12.46,4.66c-2.55,3.11-4.31,6.05-5.27,8.84
	c-0.96,2.78-1.71,5.56-2.25,8.35l-0.57,2.92L565.36,91h-18.51l7.98-41.06l0.35-1.81c0.56-2.87,0.84-5.17,0.85-6.89
	c0.01-1.72-0.45-3.55-1.37-5.5c-0.92-1.95-2.38-3.48-4.4-4.59c-2.01-1.11-4.17-1.67-6.49-1.67c-6.5,0-11.05,2.18-13.66,6.54
	c-2.61,4.36-4.67,10.44-6.19,18.23L516.79,91h-18.51l15.02-77.25h16.98l-1.38,7.1c2.27-3.11,5.51-5.46,9.71-7.07
	c4.2-1.6,8.34-2.4,12.41-2.4c8.7,0,14.94,3.2,18.69,9.6l1.32,2.51l2.43-2.51c3.3-3.15,7.13-5.54,11.47-7.17
	c4.35-1.62,8.7-2.43,13.06-2.43c4.91,0,9.18,0.74,12.78,2.22c3.6,1.48,6.6,3.96,8.98,7.43c2.38,3.48,3.69,7.37,3.92,11.67
	s-0.21,9.33-1.33,15.07L613.94,91z"/>
<path class="st0" d="M712.87,52.45c-0.9,4.62-2.76,9.57-5.6,14.84c-2.83,5.27-6.2,9.8-10.09,13.59c-3.89,3.79-8.56,6.82-14.01,9.09
	c-5.45,2.26-10.96,3.4-16.53,3.4c-5.48,0-10.24-1.03-14.29-3.09c-4.05-2.07-7.09-5.3-9.11-9.71L640.94,91h-16.98l20.02-102.99h18.51
	l-6.6,33.96c3.29-3.57,7.28-6.23,11.99-7.97c4.7-1.74,9.41-2.61,14.14-2.61c11.14,0,19.61,4.05,25.41,12.14
	C713.23,31.62,715.05,41.26,712.87,52.45z M694.34,52.59c1.25-6.46,0.22-11.9-3.09-16.32c-3.31-4.43-8.22-6.64-14.71-6.64
	c-6.4,0-12.28,2.07-17.63,6.22c-5.35,4.15-8.64,9.36-9.86,15.63c-1.31,6.73-0.25,12.38,3.18,16.94c3.42,4.57,8.57,6.85,15.44,6.85
	c6.5,0,12.26-2.17,17.27-6.5C689.95,64.44,693.09,59.04,694.34,52.59z"/>
<path class="st0" d="M800.94,51.92c-0.27,1.39-0.72,2.96-1.34,4.72s-1.07,3.1-1.34,4.02h-59.98c0.53,4.41,2.39,7.95,5.59,10.62
	c3.19,2.67,7.15,4,11.88,4c7.52,0,13.7-2.18,18.53-6.54h20.6c-3.76,6.92-9.65,12.76-17.67,17.51s-16.11,7.13-24.28,7.13
	c-11.14,0-19.93-3.93-26.38-11.79c-6.45-7.86-8.59-17.38-6.41-28.57c2.23-11.46,8.07-21.27,17.54-29.4
	c9.47-8.14,19.96-12.21,31.46-12.21c10.95,0,19.51,4.02,25.7,12.08S803.06,41,800.94,51.92z M783.64,44.24
	c-0.61-4.5-2.56-8.06-5.85-10.68c-3.3-2.62-7.4-3.93-12.32-3.93c-4.64,0-9.29,1.36-13.95,4.07c-4.66,2.71-8.1,6.23-10.33,10.55
	H783.64z"/>
<path class="st0" d="M849.13,29.49c-4.36,0-8.12,1.07-11.27,3.19c-3.15,2.13-5.27,4.44-6.36,6.94c-1.09,2.5-2.03,5.79-2.82,9.86
	L820.62,91H802.1l15.02-77.25h16.84l-1.35,6.96c2.75-3.2,5.62-5.55,8.61-7.06c2.98-1.51,6.33-2.26,10.04-2.26h1.39L849.13,29.49z"/>
<polygon class="st3" points="20.57,0 3.35,0 0,17.22 17.22,17.22 17.22,17.22 13.87,34.45 31.1,34.45 37.79,0 "/>
<path class="st0" d="M483.54,13.76l-1.8,9.26c-5.44-7.21-13.91-11.68-24.22-11.68c-20.96,0-41.52,18.37-45.93,41.04
	c-4.41,22.66,9.02,41.04,29.98,41.04c10.31,0,20.52-4.46,28.76-11.68l-1.8,9.26h17.12l15.01-77.25H483.54z M448.53,75.2
	c-12.78,0-21.15-10.22-18.7-22.82s14.8-22.82,27.57-22.82c12.3,0,20.49,9.47,18.9,21.42l-0.54,2.8
	C472.7,65.73,460.83,75.2,448.53,75.2z"/>
<g>
	<polygon class="st2" points="3918.43,91 3901.21,91 3904.56,73.78 3921.78,73.78 	"/>
	<path class="st2" d="M3673.94,91h-18.51l7.98-41.06c0.7-3.62,1.13-6.52,1.28-8.7c0.14-2.18-0.21-4.18-1.06-5.99
		c-0.86-1.81-2.27-3.22-4.25-4.24c-1.98-1.02-4.09-1.53-6.31-1.53c-5.76,0-9.91,1.55-12.46,4.66c-2.55,3.11-4.31,6.05-5.27,8.84
		c-0.96,2.78-1.71,5.56-2.25,8.35l-0.57,2.92L3625.36,91h-18.51l7.98-41.06l0.35-1.81c0.56-2.87,0.84-5.17,0.85-6.89
		c0.01-1.72-0.45-3.55-1.37-5.5c-0.92-1.95-2.38-3.48-4.4-4.59c-2-1.11-4.17-1.67-6.49-1.67c-6.5,0-11.05,2.18-13.66,6.54
		c-2.61,4.36-4.67,10.44-6.18,18.23L3576.79,91h-18.51l15.01-77.25h16.98l-1.38,7.1c2.27-3.11,5.51-5.46,9.71-7.07
		c4.2-1.6,8.34-2.4,12.41-2.4c8.7,0,14.94,3.2,18.69,9.6l1.32,2.51l2.43-2.51c3.3-3.15,7.13-5.54,11.47-7.17
		c4.35-1.62,8.7-2.43,13.06-2.43c4.91,0,9.18,0.74,12.78,2.22c3.6,1.48,6.6,3.96,8.98,7.43c2.38,3.48,3.69,7.37,3.92,11.67
		s-0.21,9.33-1.33,15.07L3673.94,91z"/>
	<path class="st2" d="M3772.87,52.45c-0.9,4.62-2.76,9.57-5.6,14.84c-2.83,5.27-6.2,9.8-10.09,13.59
		c-3.89,3.79-8.56,6.82-14.01,9.09c-5.45,2.26-10.96,3.4-16.53,3.4c-5.48,0-10.24-1.03-14.29-3.09c-4.05-2.07-7.09-5.3-9.11-9.71
		L3700.94,91h-16.98l20.02-102.99h18.51l-6.6,33.96c3.29-3.57,7.28-6.23,11.99-7.97c4.7-1.74,9.41-2.61,14.14-2.61
		c11.14,0,19.61,4.05,25.41,12.14C3773.23,31.62,3775.05,41.26,3772.87,52.45z M3754.34,52.59c1.25-6.46,0.22-11.9-3.09-16.32
		c-3.31-4.43-8.22-6.64-14.71-6.64c-6.4,0-12.28,2.07-17.63,6.22c-5.35,4.15-8.64,9.36-9.86,15.63c-1.31,6.73-0.25,12.38,3.18,16.94
		c3.42,4.57,8.57,6.85,15.44,6.85c6.5,0,12.26-2.17,17.27-6.5C3749.95,64.44,3753.09,59.04,3754.34,52.59z"/>
	<path class="st2" d="M3860.94,51.92c-0.27,1.39-0.72,2.96-1.34,4.72c-0.62,1.76-1.07,3.1-1.34,4.02h-59.98
		c0.53,4.41,2.39,7.95,5.59,10.62c3.19,2.67,7.15,4,11.88,4c7.52,0,13.7-2.18,18.53-6.54h20.59c-3.76,6.92-9.65,12.76-17.67,17.51
		s-16.11,7.13-24.28,7.13c-11.14,0-19.93-3.93-26.38-11.79s-8.59-17.38-6.41-28.57c2.23-11.46,8.07-21.27,17.54-29.4
		c9.47-8.14,19.96-12.21,31.46-12.21c10.95,0,19.51,4.02,25.7,12.08C3861.03,31.52,3863.06,41,3860.94,51.92z M3843.64,44.24
		c-0.61-4.5-2.56-8.06-5.85-10.68c-3.3-2.62-7.4-3.93-12.32-3.93c-4.64,0-9.29,1.36-13.95,4.07c-4.66,2.71-8.1,6.23-10.33,10.55
		H3843.64z"/>
	<path class="st2" d="M3909.13,29.49c-4.36,0-8.12,1.07-11.27,3.19c-3.15,2.13-5.27,4.44-6.36,6.94c-1.09,2.5-2.03,5.79-2.82,9.86
		L3880.62,91h-18.51l15.01-77.25h16.84l-1.35,6.96c2.75-3.2,5.62-5.55,8.61-7.06c2.98-1.51,6.33-2.26,10.04-2.26h1.39L3909.13,29.49
		z"/>
	<polygon class="st2" points="3452.58,13.76 3435.36,13.76 3432.01,30.98 3449.23,30.98 3449.23,30.98 3445.88,48.2 3463.11,48.2 
		3469.8,13.76 	"/>
	<path class="st2" d="M3543.54,13.76l-1.8,9.26c-5.44-7.21-13.91-11.68-24.22-11.68c-20.96,0-41.52,18.37-45.93,41.04
		s9.02,41.04,29.98,41.04c10.31,0,20.52-4.46,28.76-11.68l-1.8,9.26h17.12l15.02-77.25H3543.54z M3508.53,75.2
		c-12.78,0-21.15-10.22-18.7-22.82s14.8-22.82,27.57-22.82c12.3,0,20.49,9.47,18.9,21.42l-0.54,2.8
		C3532.7,65.73,3520.83,75.2,3508.53,75.2z"/>
</g>
<g>
	<polygon class="st1" points="4938.43,91 4921.21,91 4924.56,73.78 4941.78,73.78 	"/>
	<path class="st1" d="M4693.94,91h-18.51l7.98-41.06c0.7-3.62,1.13-6.52,1.28-8.7c0.14-2.18-0.22-4.18-1.06-5.99
		c-0.86-1.81-2.27-3.22-4.25-4.24c-1.98-1.02-4.09-1.53-6.31-1.53c-5.76,0-9.91,1.55-12.46,4.66c-2.55,3.11-4.31,6.05-5.27,8.84
		c-0.96,2.78-1.71,5.56-2.25,8.35l-0.57,2.92L4645.36,91h-18.51l7.98-41.06l0.35-1.81c0.56-2.87,0.84-5.17,0.85-6.89
		c0.01-1.72-0.45-3.55-1.37-5.5c-0.92-1.95-2.38-3.48-4.4-4.59c-2-1.11-4.17-1.67-6.49-1.67c-6.5,0-11.05,2.18-13.66,6.54
		c-2.61,4.36-4.67,10.44-6.19,18.23L4596.79,91h-18.51l15.02-77.25h16.98l-1.38,7.1c2.27-3.11,5.51-5.46,9.71-7.07
		c4.2-1.6,8.34-2.4,12.41-2.4c8.71,0,14.94,3.2,18.69,9.6l1.32,2.51l2.43-2.51c3.3-3.15,7.13-5.54,11.47-7.17
		c4.35-1.62,8.7-2.43,13.06-2.43c4.91,0,9.18,0.74,12.78,2.22c3.6,1.48,6.6,3.96,8.98,7.43c2.38,3.48,3.69,7.37,3.92,11.67
		c0.23,4.31-0.21,9.33-1.33,15.07L4693.94,91z"/>
	<path class="st1" d="M4792.87,52.45c-0.9,4.62-2.76,9.57-5.6,14.84c-2.83,5.27-6.2,9.8-10.09,13.59
		c-3.89,3.79-8.56,6.82-14.01,9.09c-5.45,2.26-10.96,3.4-16.53,3.4c-5.48,0-10.24-1.03-14.29-3.09c-4.05-2.07-7.09-5.3-9.11-9.71
		L4720.94,91h-16.98l20.02-102.99h18.51l-6.6,33.96c3.29-3.57,7.28-6.23,11.99-7.97c4.7-1.74,9.41-2.61,14.14-2.61
		c11.14,0,19.61,4.05,25.41,12.14C4793.23,31.62,4795.05,41.26,4792.87,52.45z M4774.34,52.59c1.25-6.46,0.22-11.9-3.09-16.32
		c-3.31-4.43-8.22-6.64-14.71-6.64c-6.4,0-12.28,2.07-17.63,6.22c-5.35,4.15-8.64,9.36-9.86,15.63c-1.31,6.73-0.25,12.38,3.18,16.94
		c3.42,4.57,8.57,6.85,15.44,6.85c6.5,0,12.26-2.17,17.27-6.5C4769.95,64.44,4773.09,59.04,4774.34,52.59z"/>
	<path class="st1" d="M4880.94,51.92c-0.27,1.39-0.72,2.96-1.34,4.72s-1.07,3.1-1.34,4.02h-59.98c0.53,4.41,2.4,7.95,5.59,10.62
		c3.19,2.67,7.15,4,11.88,4c7.52,0,13.7-2.18,18.53-6.54h20.59c-3.75,6.92-9.65,12.76-17.67,17.51s-16.11,7.13-24.28,7.13
		c-11.14,0-19.93-3.93-26.38-11.79c-6.45-7.86-8.59-17.38-6.41-28.57c2.23-11.46,8.07-21.27,17.54-29.4
		c9.47-8.14,19.96-12.21,31.46-12.21c10.95,0,19.51,4.02,25.7,12.08C4881.03,31.52,4883.06,41,4880.94,51.92z M4863.64,44.24
		c-0.61-4.5-2.56-8.06-5.85-10.68c-3.3-2.62-7.4-3.93-12.32-3.93c-4.64,0-9.29,1.36-13.94,4.07c-4.66,2.71-8.1,6.23-10.33,10.55
		H4863.64z"/>
	<path class="st1" d="M4929.13,29.49c-4.36,0-8.12,1.07-11.27,3.19c-3.15,2.13-5.27,4.44-6.36,6.94c-1.09,2.5-2.03,5.79-2.82,9.86
		L4900.62,91h-18.51l15.02-77.25h16.84l-1.35,6.96c2.75-3.2,5.62-5.55,8.61-7.06c2.98-1.51,6.33-2.26,10.04-2.26h1.39L4929.13,29.49
		z"/>
	<polygon class="st1" points="4472.58,13.76 4455.36,13.76 4452.01,30.98 4469.23,30.98 4469.23,30.98 4465.88,48.2 4483.1,48.2 
		4489.8,13.76 	"/>
	<path class="st1" d="M4563.54,13.76l-1.8,9.26c-5.44-7.21-13.91-11.68-24.22-11.68c-20.96,0-41.52,18.37-45.93,41.04
		s9.02,41.04,29.98,41.04c10.31,0,20.52-4.46,28.76-11.68l-1.8,9.26h17.12l15.02-77.25H4563.54z M4528.53,75.2
		c-12.78,0-21.15-10.22-18.7-22.82s14.79-22.82,27.57-22.82c12.3,0,20.49,9.47,18.9,21.42l-0.54,2.8
		C4552.7,65.73,4540.83,75.2,4528.53,75.2z"/>
</g>
<g>
	<polygon class="st1" points="2898.43,91 2881.21,91 2884.56,73.78 2901.78,73.78 	"/>
	<path class="st1" d="M2653.94,91h-18.51l7.98-41.06c0.7-3.62,1.13-6.52,1.28-8.7c0.14-2.18-0.21-4.18-1.06-5.99
		c-0.86-1.81-2.27-3.22-4.25-4.24c-1.98-1.02-4.09-1.53-6.31-1.53c-5.76,0-9.91,1.55-12.46,4.66c-2.55,3.11-4.31,6.05-5.27,8.84
		c-0.96,2.78-1.71,5.56-2.25,8.35l-0.57,2.92L2605.36,91h-18.51l7.98-41.06l0.35-1.81c0.56-2.87,0.84-5.17,0.85-6.89
		c0.01-1.72-0.45-3.55-1.37-5.5c-0.92-1.95-2.38-3.48-4.4-4.59c-2-1.11-4.17-1.67-6.49-1.67c-6.5,0-11.05,2.18-13.66,6.54
		c-2.61,4.36-4.67,10.44-6.18,18.23L2556.79,91h-18.51l15.01-77.25h16.98l-1.38,7.1c2.27-3.11,5.51-5.46,9.71-7.07
		c4.2-1.6,8.34-2.4,12.41-2.4c8.7,0,14.94,3.2,18.69,9.6l1.32,2.51l2.43-2.51c3.3-3.15,7.13-5.54,11.47-7.17
		c4.35-1.62,8.7-2.43,13.06-2.43c4.91,0,9.18,0.74,12.78,2.22c3.6,1.48,6.6,3.96,8.98,7.43c2.38,3.48,3.69,7.37,3.92,11.67
		s-0.21,9.33-1.33,15.07L2653.94,91z"/>
	<path class="st1" d="M2752.87,52.45c-0.9,4.62-2.76,9.57-5.6,14.84c-2.83,5.27-6.2,9.8-10.09,13.59
		c-3.89,3.79-8.56,6.82-14.01,9.09c-5.45,2.26-10.96,3.4-16.53,3.4c-5.48,0-10.24-1.03-14.29-3.09c-4.05-2.07-7.09-5.3-9.11-9.71
		L2680.94,91h-16.98l20.02-102.99h18.51l-6.6,33.96c3.29-3.57,7.28-6.23,11.99-7.97c4.7-1.74,9.41-2.61,14.14-2.61
		c11.14,0,19.61,4.05,25.41,12.14C2753.23,31.62,2755.05,41.26,2752.87,52.45z M2734.34,52.59c1.25-6.46,0.22-11.9-3.09-16.32
		c-3.31-4.43-8.22-6.64-14.71-6.64c-6.4,0-12.28,2.07-17.63,6.22c-5.35,4.15-8.64,9.36-9.86,15.63c-1.31,6.73-0.25,12.38,3.18,16.94
		c3.42,4.57,8.57,6.85,15.44,6.85c6.5,0,12.26-2.17,17.27-6.5C2729.95,64.44,2733.09,59.04,2734.34,52.59z"/>
	<path class="st1" d="M2840.94,51.92c-0.27,1.39-0.72,2.96-1.34,4.72c-0.62,1.76-1.07,3.1-1.34,4.02h-59.98
		c0.53,4.41,2.39,7.95,5.59,10.62c3.19,2.67,7.15,4,11.88,4c7.52,0,13.7-2.18,18.53-6.54h20.59c-3.76,6.92-9.65,12.76-17.67,17.51
		s-16.11,7.13-24.28,7.13c-11.14,0-19.93-3.93-26.38-11.79s-8.59-17.38-6.41-28.57c2.23-11.46,8.07-21.27,17.54-29.4
		c9.47-8.14,19.96-12.21,31.46-12.21c10.95,0,19.51,4.02,25.7,12.08C2841.03,31.52,2843.06,41,2840.94,51.92z M2823.64,44.24
		c-0.61-4.5-2.56-8.06-5.85-10.68c-3.3-2.62-7.4-3.93-12.32-3.93c-4.64,0-9.29,1.36-13.95,4.07c-4.66,2.71-8.1,6.23-10.33,10.55
		H2823.64z"/>
	<path class="st1" d="M2889.13,29.49c-4.36,0-8.12,1.07-11.27,3.19c-3.15,2.13-5.27,4.44-6.36,6.94c-1.09,2.5-2.03,5.79-2.82,9.86
		L2860.62,91h-18.51l15.01-77.25h16.84l-1.35,6.96c2.75-3.2,5.62-5.55,8.61-7.06c2.98-1.51,6.33-2.26,10.04-2.26h1.39L2889.13,29.49
		z"/>
	<polygon class="st1" points="2432.58,13.76 2415.36,13.76 2412.01,30.98 2429.23,30.98 2429.23,30.98 2425.88,48.2 2443.11,48.2 
		2449.8,13.76 	"/>
	<path class="st1" d="M2523.54,13.76l-1.8,9.26c-5.44-7.21-13.91-11.68-24.22-11.68c-20.96,0-41.52,18.37-45.93,41.04
		s9.02,41.04,29.98,41.04c10.31,0,20.52-4.46,28.76-11.68l-1.8,9.26h17.12l15.02-77.25H2523.54z M2488.53,75.2
		c-12.78,0-21.15-10.22-18.7-22.82s14.8-22.82,27.57-22.82c12.3,0,20.49,9.47,18.9,21.42l-0.54,2.8
		C2512.7,65.73,2500.83,75.2,2488.53,75.2z"/>
</g>
<g>
	<polygon class="st3" points="1878.43,91 1861.21,91 1864.56,73.78 1881.78,73.78 	"/>
	<path class="st1" d="M1633.94,91h-18.51l7.98-41.06c0.7-3.62,1.13-6.52,1.28-8.7c0.14-2.18-0.21-4.18-1.06-5.99
		c-0.86-1.81-2.27-3.22-4.25-4.24c-1.98-1.02-4.09-1.53-6.31-1.53c-5.76,0-9.91,1.55-12.46,4.66c-2.55,3.11-4.31,6.05-5.27,8.84
		s-1.71,5.56-2.25,8.35l-0.57,2.92L1585.36,91h-18.51l7.98-41.06l0.35-1.81c0.56-2.87,0.84-5.17,0.85-6.89
		c0.01-1.72-0.45-3.55-1.37-5.5c-0.92-1.95-2.38-3.48-4.4-4.59c-2.01-1.11-4.17-1.67-6.49-1.67c-6.5,0-11.05,2.18-13.66,6.54
		c-2.61,4.36-4.67,10.44-6.19,18.23L1536.79,91h-18.51l15.02-77.25h16.98l-1.38,7.1c2.27-3.11,5.51-5.46,9.71-7.07
		c4.2-1.6,8.34-2.4,12.41-2.4c8.7,0,14.94,3.2,18.69,9.6l1.32,2.51l2.43-2.51c3.3-3.15,7.13-5.54,11.47-7.17
		c4.35-1.62,8.7-2.43,13.06-2.43c4.91,0,9.18,0.74,12.78,2.22c3.6,1.48,6.6,3.96,8.98,7.43c2.38,3.48,3.69,7.37,3.92,11.67
		s-0.21,9.33-1.33,15.07L1633.94,91z"/>
	<path class="st1" d="M1732.87,52.45c-0.9,4.62-2.76,9.57-5.6,14.84c-2.83,5.27-6.2,9.8-10.09,13.59
		c-3.89,3.79-8.56,6.82-14.01,9.09c-5.45,2.26-10.96,3.4-16.53,3.4c-5.48,0-10.24-1.03-14.29-3.09c-4.05-2.07-7.09-5.3-9.11-9.71
		L1660.94,91h-16.98l20.02-102.99h18.51l-6.6,33.96c3.29-3.57,7.28-6.23,11.99-7.97c4.7-1.74,9.41-2.61,14.14-2.61
		c11.14,0,19.61,4.05,25.41,12.14C1733.23,31.62,1735.05,41.26,1732.87,52.45z M1714.34,52.59c1.25-6.46,0.22-11.9-3.09-16.32
		c-3.31-4.43-8.22-6.64-14.71-6.64c-6.4,0-12.28,2.07-17.63,6.22c-5.35,4.15-8.64,9.36-9.86,15.63c-1.31,6.73-0.25,12.38,3.18,16.94
		c3.42,4.57,8.57,6.85,15.44,6.85c6.5,0,12.26-2.17,17.27-6.5C1709.95,64.44,1713.09,59.04,1714.34,52.59z"/>
	<path class="st1" d="M1820.94,51.92c-0.27,1.39-0.72,2.96-1.34,4.72s-1.07,3.1-1.34,4.02h-59.98c0.53,4.41,2.39,7.95,5.59,10.62
		c3.19,2.67,7.15,4,11.88,4c7.52,0,13.7-2.18,18.53-6.54h20.6c-3.76,6.92-9.65,12.76-17.67,17.51s-16.11,7.13-24.28,7.13
		c-11.14,0-19.93-3.93-26.38-11.79s-8.59-17.38-6.41-28.57c2.23-11.46,8.07-21.27,17.54-29.4c9.47-8.14,19.96-12.21,31.46-12.21
		c10.95,0,19.51,4.02,25.69,12.08C1821.03,31.52,1823.06,41,1820.94,51.92z M1803.64,44.24c-0.61-4.5-2.56-8.06-5.85-10.68
		c-3.3-2.62-7.4-3.93-12.32-3.93c-4.64,0-9.29,1.36-13.95,4.07c-4.66,2.71-8.1,6.23-10.33,10.55H1803.64z"/>
	<path class="st1" d="M1869.13,29.49c-4.36,0-8.12,1.07-11.27,3.19c-3.15,2.13-5.27,4.44-6.36,6.94c-1.09,2.5-2.03,5.79-2.82,9.86
		L1840.62,91h-18.51l15.01-77.25h16.84l-1.35,6.96c2.75-3.2,5.62-5.55,8.61-7.06c2.98-1.51,6.33-2.26,10.04-2.26h1.39L1869.13,29.49
		z"/>
	<polygon class="st3" points="1412.58,13.76 1395.36,13.76 1392.01,30.98 1409.23,30.98 1409.23,30.98 1405.88,48.2 1423.11,48.2 
		1429.8,13.76 	"/>
	<path class="st1" d="M1503.54,13.76l-1.8,9.26c-5.44-7.21-13.91-11.68-24.22-11.68c-20.96,0-41.52,18.37-45.93,41.04
		s9.02,41.04,29.98,41.04c10.31,0,20.52-4.46,28.76-11.68l-1.8,9.26h17.12l15.02-77.25H1503.54z M1468.53,75.2
		c-12.78,0-21.15-10.22-18.7-22.82s14.8-22.82,27.57-22.82c12.3,0,20.49,9.47,18.9,21.42l-0.54,2.8
		C1492.7,65.73,1480.83,75.2,1468.53,75.2z"/>
</g>
</svg>
